<svg xmlns="http://www.w3.org/2000/svg" xmlns:xlink="http://www.w3.org/1999/xlink" width="1575.402" height="1310.269" viewBox="0 0 1575.402 1310.269">
  <defs>
    <style>
      .cls-1, .cls-5 {
        fill: #91ceff;
      }

      .cls-1 {
        opacity: 0.44;
      }

      .cls-2 {
        fill: #0060ca;
      }

      .cls-18, .cls-3 {
        fill: #38d39f;
      }

      .cls-4 {
        fill: #3a3768;
      }

      .cls-6 {
        fill: #e6e8ec;
      }

      .cls-7 {
        fill: #090089;
        opacity: 0.4;
      }

      .cls-8 {
        fill: url(#linear-gradient);
      }

      .cls-9 {
        fill: #707070;
        opacity: 0.55;
      }

      .cls-10 {
        fill: #5f5570;
      }

      .cls-11, .cls-17, .cls-18 {
        opacity: 0.1;
      }

      .cls-12 {
        fill: #eaeaf2;
      }

      .cls-13 {
        fill: #686868;
      }

      .cls-14 {
        opacity: 0.8;
      }

      .cls-15 {
        fill: #ffc4d0;
      }

      .cls-16 {
        fill: #8e6f7f;
      }
    </style>
    <linearGradient id="linear-gradient" y1="0.5" x2="1" y2="0.5" gradientUnits="objectBoundingBox">
      <stop offset="0" stop-color="gray" stop-opacity="0.251"/>
      <stop offset="0.54" stop-color="gray" stop-opacity="0.122"/>
      <stop offset="1" stop-color="gray" stop-opacity="0.102"/>
    </linearGradient>
  </defs>
  <g id="Grupo_42" data-name="Grupo 42" transform="translate(12636.93 16408.313)">
    <g id="bg" transform="translate(-12636.925 -16408.311)">
      <path id="Trazado_145" data-name="Trazado 145" class="cls-1" d="M1010.549,204.022c-101-3.511-197.186-36.11-289.038-71.783S538.682,57.037,440.1,38.14c-63.4-12.156-135.92-13.873-187,20.115-49.172,32.771-65.058,89.183-73.594,141.585-6.429,39.418-10.206,80.912,7.4,117.8,12.234,25.624,33.925,47.159,48.938,71.705,52.23,85.391,15.309,190.694-41.275,274.072-26.529,39.122-57.349,76.465-77.838,118.068S86.774,870.827,104.7,913.3c17.759,42.134,60.1,73.718,105.959,95.956,93.147,45.177,202.866,58.1,309.933,65.417,236.932,16.214,475.113,9.191,712.669,2.169,87.919-2.606,176.213-5.243,262.7-18.835,48.032-7.553,97.61-19.522,132.487-48.454,44.256-36.719,55.226-98.889,25.561-144.94-49.749-77.23-187.261-96.408-222.076-179.287-19.132-45.629.515-96.439,28.339-138.76,59.674-90.759,159.687-170.392,164.946-274.135,3.62-71.253-44.459-142.615-118.8-176.338-77.916-35.33-185.981-30.9-243.439,27.605C1203.755,183.938,1099.732,207.112,1010.549,204.022Z" transform="translate(-95.23 -30.18)"/>
      <ellipse id="Elipse_7" data-name="Elipse 7" class="cls-2" cx="474.348" cy="64.168" rx="474.348" ry="64.168" transform="translate(320.145 1158.575)"/>
      <path id="Trazado_160" data-name="Trazado 160" class="cls-3" d="M449.52,283.283s43.257-56.366,66.852-52c0,0-26.216,50.248-66.852,57.739Z" transform="translate(103.355 82.408)"/>
      <path id="Trazado_161" data-name="Trazado 161" class="cls-3" d="M464.051,235.487s38.248-43.226,58.894-43.117c0,0-30.18,57.739-60.454,57.208Z" transform="translate(110.625 60.73)"/>
      <rect id="Rectángulo_82" data-name="Rectángulo 82" class="cls-4" width="13.826" height="113.948" rx="2.29" transform="translate(1003.097 452.268)"/>
      <rect id="Rectángulo_83" data-name="Rectángulo 83" class="cls-4" width="7.756" height="37.515" rx="2.29" transform="translate(543.637 362.991)"/>
      <rect id="Rectángulo_84" data-name="Rectángulo 84" class="cls-4" width="8.739" height="65.292" rx="2.29" transform="translate(543.356 431.685)"/>
      <rect id="Rectángulo_85" data-name="Rectángulo 85" class="cls-4" width="8.318" height="65.853" rx="2.29" transform="translate(543.496 519.822)"/>
      <rect id="Rectángulo_86" data-name="Rectángulo 86" class="cls-4" width="462.535" height="940.035" rx="38.99" transform="translate(548.022 239.024)"/>
      <path id="Trazado_182" data-name="Trazado 182" class="cls-5" d="M833.437,199H780.38v6.382a30.243,30.243,0,0,1-30.258,30.243H581.384a30.243,30.243,0,0,1-30.258-30.243V199H501.454a36.734,36.734,0,0,0-36.734,36.734v817.66a36.734,36.734,0,0,0,36.734,36.734H833.437a36.734,36.734,0,0,0,36.734-36.734V235.8A36.734,36.734,0,0,0,833.437,199Z" transform="translate(111.875 64.446)"/>
      <rect id="Rectángulo_87" data-name="Rectángulo 87" class="cls-6" width="64.589" height="13.108" rx="3.87" transform="translate(734.674 267.098)"/>
      <circle id="Elipse_8" data-name="Elipse 8" class="cls-6" cx="7.444" cy="7.444" r="7.444" transform="translate(809.032 266.208)"/>
      <rect id="Rectángulo_88" data-name="Rectángulo 88" class="cls-7" width="322.947" height="685.438" rx="20" transform="translate(617.823 352.957)"/>
      <path id="Trazado_185" data-name="Trazado 185" class="cls-8" d="M804.161,1029.583s-7.615-17.727-11.017-25.9c-1.919-4.682-5.165-5.462-7.647-5.353l.141-1.56.609-7.381.125-1.561c5.883-1.233,10.924-2.2,10.924-2.2L793.628,796.3s-1.561-2-5.337-14.045c-1.873-6.008-10.924-13.389-19.382-19.272-1.326-.921-2.622-1.795-3.9-2.637A97.408,97.408,0,0,1,774.7,753.2c4.806-2.793,6.4-18.726,6.4-18.726l-.8,1.561c.8-1.561,0-42.243,0-42.243l-2.809-42.227s-2-50.2-17.6-63.357-35.314-17.759-35.314-17.759l-10.924-2.809h0l-20.131-5.165a25.789,25.789,0,0,1-1.56-2.9c-.2-.39-.39-.8-.577-1.2a47.127,47.127,0,0,0,19.9-38.466,46.4,46.4,0,0,0-.609-7.553,7.576,7.576,0,0,0-.265-1.42,39.319,39.319,0,0,0,4.682-3.761,21.268,21.268,0,0,0,5.711-7.007h0a11.813,11.813,0,0,0,.531-1.638.924.924,0,0,1,.094-.484,6.256,6.256,0,0,0,.187-1.248v-2.185a10.792,10.792,0,0,0-.156-1.56.2.2,0,0,0,0-.094h0a26.857,26.857,0,0,0-1.4-5.306c-1.561-4.026-3.589-7.8-4.323-12.094-.905-5.072.14-10.611-2.278-15.168a13.529,13.529,0,0,0-9.5-6.539,22.394,22.394,0,0,0-11.735,1.342,16.7,16.7,0,0,1-5.79,1.56,12.094,12.094,0,0,1-4.229-1.03,62.724,62.724,0,0,1-13.108-7.038,62.752,62.752,0,0,0-9.363-6.117,12.672,12.672,0,0,0-10.8-.437c-5.774,2.934-6.866,11.111-12.234,14.716-3.7,2.5-8.52,2.247-12.983,2.4s-9.519,1.264-11.719,5.134c-1.56,2.684-1.186,5.883-.889,9.02l.094,1.061a4.685,4.685,0,0,0,.094,1.139,28.665,28.665,0,0,1-1.763,11.8c-2.154,5.711-6.242,11.345-6.1,17.166h0a11.945,11.945,0,0,0,.359,2.746,13.188,13.188,0,0,0,.437,1.326h0a58.121,58.121,0,0,0,2.887,5.633l.141.25c.109.218.219.437.312.655s.281.593.39.89.125.3.172.437.2.577.281.874a8.364,8.364,0,0,1,.328,2.715,25.26,25.26,0,0,0-.3,3.574,2.622,2.622,0,0,0,2.091,2.544,3.481,3.481,0,0,0,1.81-.562,28.983,28.983,0,0,0,3.979-2.731,9.086,9.086,0,0,0,.094,1.56,47.222,47.222,0,0,0,14.185,29.384,7.977,7.977,0,0,1-.109,1.56,12.455,12.455,0,0,0-.109,1.7h0l-17.478,5.493s.094.312.281.843l-1.841.733h0c-9.067,3.667-19.163,8.224-24.812,12.359-2.5,1.81-4.775,3.293-6.819,4.526a39.012,39.012,0,0,0-16.167,19.584l-.234.593c-1.561,3.574-9.207,27.886-9.207,27.886s-5.6,13.545-6.414,22.315c0,0-9.207,29.072-6.8,48.2,0,0-7.21,27.5-4.4,31.866,0,0-2.871,11.829,9.738,23.735-.921.562-1.919,1.17-2.965,1.841-9.769,6.148-23.86,16.12-26.263,23.813-3.73,11.969-5.337,14.045-5.337,14.045l-3.776,189.024s5.04.968,10.924,2.185l.125,1.56.609,7.366.14,1.561c-2.481-.109-5.727.749-7.646,5.368-3.418,8.161-10.924,25.873-10.924,25.873s-16.807,15.605-6.617,30.087a10.423,10.423,0,0,0,1.56,1.81c7.319,6.648,22.924,2.388,34.019-1.951a33.176,33.176,0,0,0,14.044-11.329,5.337,5.337,0,0,1,3.745-2.076,15.292,15.292,0,0,0,6.975-3.043,9.364,9.364,0,0,0,3.839-7.8,1.18,1.18,0,0,1,0-.234l-.983-22.206s-1.2-15.511-5.025-14.513l-.983.234-.265-1.561h0l-.515-3.012-.265-1.56h2.122s.531-17.54,6.944-31.335,10.627-125.231,10.627-125.231,79.383,1.3,82.036-6.148h0c1.561,0,3.262,0,4.884-.109,2.669,7.444,77.589,7.8,77.589,7.8s4.26,111.561,10.658,125.371a63.69,63.69,0,0,1,3.355,9.145h0a102.089,102.089,0,0,1,3.6,22.175h2.122l-.281,1.56-.515,3-.265,1.56-1.014-.234c-3.792-.983-4.994,14.528-4.994,14.528l-1.014,22.346a9.067,9.067,0,0,0,3.714,7.8,15.606,15.606,0,0,0,7.1,3.121,5.211,5.211,0,0,1,3.745,2.06,33.271,33.271,0,0,0,14.045,11.329c11.985,4.682,29.213,9.254,35.611.156C820.968,1045.126,804.161,1029.583,804.161,1029.583Zm-201.774-278.3Zm125.387-63.794s2.013,7.568,5.6,11.548,1.81,28.7,1.81,28.7a22.169,22.169,0,0,0-4.182.671C728.242,711.973,725.7,693.73,727.774,687.488Z" transform="translate(126.716 200.161)"/>
      <path id="Trazado_186" data-name="Trazado 186" class="cls-9" d="M449.073,777.471l-31.382,3.121-.874-10.5-.609-7.225L415.35,752.3,445,753.86l2.356,13.561.5,2.949h.016Z" transform="translate(232.81 421.672)"/>
      <path id="Trazado_187" data-name="Trazado 187" class="cls-9" d="M595.528,753.31l-.858,10.549-.593,7.225-.889,10.5-31.4-3.121,1.248-7.1.484-2.934,2.356-13.561Z" transform="translate(314.891 422.238)"/>
      <path id="Trazado_188" data-name="Trazado 188" class="cls-10" d="M727.444,711.463l-93.318,4.385q-6.367.312-12.734,0l-89.152-4.369V640.85h195.2Z" transform="translate(149.72 312.107)"/>
      <path id="Trazado_189" data-name="Trazado 189" class="cls-11" d="M727.444,711.463l-93.318,4.385q-6.367.312-12.734,0l-89.152-4.369V640.85h195.2Z" transform="translate(149.72 312.107)"/>
      <path id="Trazado_190" data-name="Trazado 190" class="cls-12" d="M609.7,518.91s-31.085,10.44-42.789,19.023c-2.434,1.779-4.682,3.246-6.648,4.447a38.076,38.076,0,0,0-15.714,19.163c-.078.219-.156.406-.234.577-1.56,3.511-8.973,27.309-8.973,27.309s-5.462,13.264-6.242,21.847,44.474,31.6,44.474,31.6-21.847,47.6-12.094,59.689,152.15,17.946,149.029,0-8.583-47.6-5.852-55.788l48.376-35.111s-1.951-49.156-17.166-62.03-34.331-17.556-34.331-17.556l-30.289-7.8s-10.674,26.529-22.378,30.04S611.53,541.615,609.7,518.91Z" transform="translate(147.957 243.758)"/>
      <path id="Trazado_191" data-name="Trazado 191" class="cls-11" d="M621.633,547.54s-13.2,11.017-20.131,0c0,0-6.242,18.633,0,24.875l-.234,1.264-1.108,5.555L585.71,699.393,597.6,719.914l21.644-27.153L617.5,580.4l-.78-6.445-.187-1.561h3.7S630.044,555.436,621.633,547.54Z" transform="translate(179.691 259.806)"/>
      <path id="Trazado_192" data-name="Trazado 192" class="cls-11" d="M623.633,547.54s-13.2,11.017-20.131,0c0,0-6.242,18.633,0,24.875l-.234,1.264-1.108,5.555L587.71,699.393,599.6,719.914l21.644-27.153L619.5,580.4l-.78-6.445-.187-1.561h3.7S632.044,555.436,623.633,547.54Z" transform="translate(180.812 259.806)"/>
      <path id="Trazado_193" data-name="Trazado 193" class="cls-2" d="M525.027,654.478l-21.644,27.106L491.46,661.173l14.466-120.222,1.108-5.555.25-1.28,1.951-5.056,13.077,5.056.187,1.561.78,6.445Z" transform="translate(275.47 296.544)"/>
      <path id="Trazado_194" data-name="Trazado 194" class="cls-11" d="M542.586,797.591a105.989,105.989,0,0,1-20.053-2.044c-3.261-.812-7.35-1.717-11.08-2.512l-.874-10.565,29.65,1.561Z" transform="translate(137.58 391.486)"/>
      <path id="Trazado_195" data-name="Trazado 195" class="cls-13" d="M645.06,716.017c-2.59,7.288-79.96,6.008-79.96,6.008S560.949,831.26,554.707,844.79s-6.773,30.68-6.773,30.68-13.514,0-21.847-2.076-21.847-4.682-21.847-4.682l3.652-185.31s1.561-1.951,5.2-13.67c2.341-7.537,16.073-17.306,25.577-23.408,5.306-3.339,9.269-5.524,9.269-5.524l46.16,1.873,28.495,1.155S647.666,708.729,645.06,716.017Z" transform="translate(134.026 312.079)"/>
      <path id="Trazado_196" data-name="Trazado 196" class="cls-11" d="M543.8,801.251l-31.4,3.121-.89-10.5a9.369,9.369,0,0,1,3.418.749c5.727,4.12,22.1.843,27.637-.468h0Z" transform="translate(138.101 397.876)"/>
      <path id="Trazado_197" data-name="Trazado 197" class="cls-14" d="M559.649,831.064a9.16,9.16,0,0,1-3.761,7.631,14.9,14.9,0,0,1-6.788,2.98,5.072,5.072,0,0,0-3.636,2.029,32.568,32.568,0,0,1-13.733,11.1c-10.814,4.245-26.029,8.411-33.161,1.9a9.853,9.853,0,0,1-1.56-1.763c-9.94-14.232,6.445-29.462,6.445-29.462s7.4-17.353,10.721-25.343A7.8,7.8,0,0,1,524.9,795.64c6.242,4.494,25.171.187,28.869-.765s4.884,14.216,4.884,14.216l1,21.738a1.18,1.18,0,0,0,0,.234Z" transform="translate(128.179 398.416)"/>
      <path id="Trazado_198" data-name="Trazado 198" class="cls-11" d="M690.146,783.48l-.874,10.549c-3.73.8-7.8,1.7-11.1,2.512a106.271,106.271,0,0,1-20.037,2.06l2.356-13.561Z" transform="translate(220.288 392.052)"/>
      <path id="Trazado_199" data-name="Trazado 199" class="cls-13" d="M734.067,869.684s-13.514,2.606-21.847,4.682-21.847,2.075-21.847,2.075-.515-17.166-6.757-30.68S673.207,723,673.207,723s-73-.421-75.607-7.709,31.819-70.223,31.819-70.223l20.989-1.092,39.964-2.122a188.192,188.192,0,0,1,15.98,9.972c8.177,5.727,17.056,13,18.882,18.882,3.636,11.719,5.2,13.67,5.2,13.67Z" transform="translate(186.276 312.668)"/>
      <path id="Trazado_200" data-name="Trazado 200" class="cls-11" d="M689.307,794.87l-.874,10.5-31.413-3.121,1.248-7.1c5.54,1.326,21.847,4.588,27.621.468a9.369,9.369,0,0,1,3.418-.749Z" transform="translate(219.661 398.437)"/>
      <path id="Trazado_201" data-name="Trazado 201" class="cls-14" d="M688,796.646a7.8,7.8,0,0,1,10.736,4.494c3.308,7.99,10.721,25.358,10.721,25.358s16.385,15.215,6.445,29.447c-6.242,8.926-23.033,4.447-34.706-.141a32.365,32.365,0,0,1-13.733-11.1,5.087,5.087,0,0,0-3.652-2.029,15.309,15.309,0,0,1-6.929-3.121,8.926,8.926,0,0,1-3.6-7.615l.983-21.847s1.17-15.184,4.869-14.232S681.753,801.14,688,796.646Z" transform="translate(217.555 398.97)"/>
      <path id="Trazado_202" data-name="Trazado 202" class="cls-15" d="M649.115,537.377l-31.507,33.395-.874.936-1.139-.671c-6.585-3.9-39.528-23.782-36.7-29.759,1.561-3.4,2.481-10.487,2.965-16.588,0-.733.094-1.451.156-2.154.312-4.822.39-8.567.39-8.567s59.3-10.143,56.959,0c-.952,4.1.468,8.723,2.481,12.765.593,1.17,1.248,2.278,1.888,3.324A51.494,51.494,0,0,0,649.115,537.377Z" transform="translate(175.773 238.462)"/>
      <path id="Trazado_203" data-name="Trazado 203" class="cls-11" d="M640.66,526.734a46.269,46.269,0,0,1-59.83-4.2c.312-4.822.39-8.567.39-8.567s59.3-10.143,56.959,0C637.274,518.1,638.647,522.693,640.66,526.734Z" transform="translate(176.955 238.462)"/>
      <path id="Trazado_204" data-name="Trazado 204" class="cls-15" d="M664.512,512.27a46.3,46.3,0,0,1-92.444,4.4q-.187-2.185-.187-4.4a46.3,46.3,0,1,1,92.593,0Z" transform="translate(171.939 214.085)"/>
      <path id="Trazado_205" data-name="Trazado 205" class="cls-11" d="M663.89,505.025a11.079,11.079,0,0,1-8.708,2.356c-7.147-1.56-9.6-12.484-16.9-13.233s-12.156,9.363-19.553,9.16c-3.121-.078-5.93-2.122-8.8-3.542-5.025-2.481-13.3-3.995-18.726-2.122-8.161,2.793-10.924,10.346-16.136,16.354a23.8,23.8,0,0,1-2.918,2.824q-.187-2.185-.187-4.4a46.3,46.3,0,0,1,92.07-7.4Z" transform="translate(171.983 213.934)"/>
      <path id="Trazado_206" data-name="Trazado 206" class="cls-16" d="M614.443,509.14c2.871,1.4,5.618,3.464,8.8,3.542,7.381.187,12.2-9.972,19.538-9.176s9.753,11.626,16.932,13.233c4.822,1.092,9.363-2.512,12.968-5.868a20.644,20.644,0,0,0,5.571-6.851c1.561-3.87.749-8.333-.7-12.266s-3.5-7.709-4.213-11.844c-.874-4.962.141-10.393-2.216-14.856a13.156,13.156,0,0,0-9.269-6.4,21.848,21.848,0,0,0-11.438,1.3,16.183,16.183,0,0,1-5.634,1.56,11.921,11.921,0,0,1-4.135-1.014,61.063,61.063,0,0,1-12.765-6.882,59.858,59.858,0,0,0-9.1-5.992,12.265,12.265,0,0,0-10.518-.421c-5.618,2.871-6.694,10.924-11.922,14.4-3.6,2.434-8.3,2.185-12.64,2.356s-9.363,1.217-11.423,5.009c-1.841,3.261-.921,7.272-.687,11a28.245,28.245,0,0,1-1.732,11.548c-2.419,6.46-7.334,12.827-5.587,19.506,1.139,4.385,5.072,8.021,4.838,12.484a23.805,23.805,0,0,0-.3,3.48,2.575,2.575,0,0,0,2.044,2.5,3.122,3.122,0,0,0,1.748-.562,26.094,26.094,0,0,0,6.882-5.571c5.275-6.024,8.005-13.561,16.167-16.354C601.163,505.177,609.418,506.644,614.443,509.14Z" transform="translate(167.468 203.015)"/>
      <path id="Trazado_207" data-name="Trazado 207" class="cls-15" d="M655.918,668.723l-8.427,2.294-19.459,5.353a47.016,47.016,0,0,1-14.965,7.444c-11.907,3.012-19.6-3.542-26-13.686-2.575-4.057-1.28-7.3,2.091-9.847,8.115-6.133,28.183-8.13,34.331-7.319a25.687,25.687,0,0,0,11.844-1.841A45.882,45.882,0,0,0,643,647.5Z" transform="translate(179.69 315.834)"/>
      <path id="Trazado_208" data-name="Trazado 208" class="cls-11" d="M638.071,668.74l-8.427,2.294c-2.419-7.288-6.4-16.432-12.094-19.943a45.883,45.883,0,0,0,7.662-3.62Z" transform="translate(197.537 315.818)"/>
      <path id="Trazado_209" data-name="Trazado 209" class="cls-11" d="M693.923,651.822c-3.5,2.825-6.46,5.4-6.46,5.4s-40.573,12.718-48.376,28.713c0,0-6.242-31.21-19.506-31.6,0,0,14.279-5.6,18.4-10.393l40-2.091A185.046,185.046,0,0,1,693.923,651.822Z" transform="translate(198.675 312.668)"/>
      <path id="Trazado_210" data-name="Trazado 210" class="cls-12" d="M694.435,569.85l8.973,13.264,2.731,41.353s.78,39.793,0,41.354l.78-1.561s-1.561,15.605-6.242,18.336-15.215,11.86-15.215,11.86-40.573,12.718-48.376,28.713c0,0-6.242-31.21-19.506-31.6,0,0,19.9-7.8,19.506-12.874,0,0,15.215-13.654,16.385-17.166s8.77-3.9,8.77-3.9,1.763-24.188-1.748-28.089-5.462-11.314-5.462-11.314Z" transform="translate(197.554 272.311)"/>
      <path id="Trazado_211" data-name="Trazado 211" class="cls-11" d="M613.067,679.193c-11.907,3.012-19.6-3.542-26-13.686-2.575-4.057-1.28-7.3,2.091-9.847l1.217.484S611.834,665.444,613.067,679.193Z" transform="translate(179.69 320.408)"/>
      <path id="Trazado_212" data-name="Trazado 212" class="cls-15" d="M621.873,693.516c-14.045,19.506-40.183-7.615-42.134-13.077-.7-1.982-3.371-3.745-6.445-5.165a69.569,69.569,0,0,0-12.094-4.01l23.22-18.913,4.447,1.779,13.686,5.477S635.917,674.01,621.873,693.516Z" transform="translate(165.953 318.553)"/>
      <path id="Trazado_213" data-name="Trazado 213" class="cls-11" d="M588.879,654.129c-12.8,6.086-15.527,14.84-15.605,21.145a69.571,69.571,0,0,0-12.094-4.01L584.4,652.35Z" transform="translate(165.941 318.553)"/>
      <path id="Trazado_214" data-name="Trazado 214" class="cls-11" d="M587.97,694.3s-37.452-29.65-55.4-42.524a43.874,43.874,0,0,1-6.242-5.4c5.306-3.339,9.269-5.524,9.269-5.524l46.16,1.873c1.233,2.138,1.966,3.589,1.966,3.589L608.694,662.7C578.607,672.45,587.97,694.3,587.97,694.3Z" transform="translate(146.408 312.107)"/>
      <path id="Trazado_215" data-name="Trazado 215" class="cls-12" d="M540.642,575.35l-7.412,4.291s-8.973,28.479-6.632,47.205c0,0-7.022,26.919-4.291,31.21,0,0-3.511,14.435,14.435,27.309s55.4,42.524,55.4,42.524-9.363-21.847,20.677-31.6L587.848,679.9s-8.38-16.635-16.385-20.287c0,0-6.242-6.242-2.341-10.533s7.022-8.973,7.022-13.264,1.561-24.578,1.561-24.578l4.682-21.847Z" transform="translate(143.799 275.394)"/>
      <path id="Trazado_216" data-name="Trazado 216" class="cls-11" d="M612.135,565.847H596.92a2.028,2.028,0,0,1-.25-.281l.25-1.28,1.951-5.056,13.077,5.056Z" transform="translate(185.834 266.358)"/>
      <path id="Trazado_217" data-name="Trazado 217" class="cls-2" d="M617.957,546.54s-13.2,11.017-20.131,0c0,0-6.242,18.632,0,24.875h18.726S626.368,554.436,617.957,546.54Z" transform="translate(184.927 259.245)"/>
      <path id="Trazado_218" data-name="Trazado 218" class="cls-11" d="M630.749,523.35l19.662,5.072S631.779,576.8,627.675,576.8L604.08,565.484Z" transform="translate(189.987 246.247)"/>
      <path id="Trazado_219" data-name="Trazado 219" class="cls-11" d="M635.87,530.349l-31.507,33.395-.874.936-1.139-.671L629.893,522l.671,1.108a51.518,51.518,0,0,0,5.306,7.241Z" transform="translate(189.018 245.491)"/>
      <path id="Trazado_220" data-name="Trazado 220" class="cls-12" d="M629.749,522.35l19.662,5.072S630.779,575.8,626.675,575.8L603.08,564.484Z" transform="translate(189.427 245.687)"/>
      <path id="Trazado_221" data-name="Trazado 221" class="cls-11" d="M585.871,519.91l-17.041,5.368s16.776,50.717,21.457,53.447l30.43-11.314Z" transform="translate(170.229 244.319)"/>
      <path id="Trazado_222" data-name="Trazado 222" class="cls-11" d="M617.607,565.644l-.874.936s-40.963-23.8-37.842-30.43c1.561-3.4,2.481-10.487,2.965-16.588v-.952Z" transform="translate(175.773 243.59)"/>
      <path id="Trazado_223" data-name="Trazado 223" class="cls-12" d="M586.871,518.91l-17.041,5.368s16.775,50.716,21.457,53.447l30.43-11.314Z" transform="translate(170.79 243.758)"/>
      <path id="Trazado_224" data-name="Trazado 224" class="cls-11" d="M554.74,572.465s10.268,1.826,10.081,12.484,4.229-13.779,4.229-13.779Z" transform="translate(162.332 273.051)"/>
      <path id="Trazado_225" data-name="Trazado 225" class="cls-11" d="M556.7,593s-2.856,16.12,0,30.7,2.606,19.506,4.822,20.287S556.7,593,556.7,593Z" transform="translate(162.717 285.287)"/>
      <path id="Trazado_226" data-name="Trazado 226" class="cls-11" d="M642.014,592a5.649,5.649,0,0,0-4.682,7.288C638.643,605.81,642.014,592,642.014,592Z" transform="translate(208.481 284.726)"/>
      <path id="Trazado_227" data-name="Trazado 227" class="cls-11" d="M525.91,627.245s33.442-2.856,39.013,3.121S525.91,627.245,525.91,627.245Z" transform="translate(146.172 304.099)"/>
      <path id="Trazado_228" data-name="Trazado 228" class="cls-11" d="M650.24,628.828s24.453-3.012,30.18,1.155" transform="translate(215.86 304.779)"/>
      <path id="Trazado_229" data-name="Trazado 229" class="cls-11" d="M656.58,631s14.56.515,17.946,2.341" transform="translate(219.414 306.586)"/>
      <path id="Trazado_230" data-name="Trazado 230" class="cls-11" d="M658.41,634.37s13.264-.515,15.09,1.56" transform="translate(220.44 308.443)"/>
      <path id="Trazado_231" data-name="Trazado 231" class="cls-11" d="M538.54,681.35s11.36,5.914,10.206,11.953S538.54,681.35,538.54,681.35Z" transform="translate(153.251 334.808)"/>
      <path id="Trazado_232" data-name="Trazado 232" class="cls-11" d="M532.24,683.19s17.337,22.487,14.981,29.9S532.24,683.19,532.24,683.19Z" transform="translate(149.72 335.839)"/>
      <path id="Trazado_233" data-name="Trazado 233" class="cls-11" d="M654.33,685.58s-8.583,7.069-8.349,12.906" transform="translate(213.471 337.179)"/>
      <path id="Trazado_234" data-name="Trazado 234" class="cls-11" d="M524.33,774.85s0,6.632,12.281,16.385" transform="translate(145.287 387.215)"/>
      <path id="Trazado_235" data-name="Trazado 235" class="cls-11" d="M668,764.85s-1.311,13.795-13.264,20.942" transform="translate(218.383 381.61)"/>
      <g id="Grupo_41" data-name="Grupo 41" class="cls-17" transform="translate(731.377 674.968)">
        <path id="Trazado_236" data-name="Trazado 236" d="M568.97,465.987c0-1.077-.187-2.185-.281-3.277a31.475,31.475,0,0,0,.219,7.147A29.082,29.082,0,0,0,568.97,465.987Z" transform="translate(-561.288 -462.71)"/>
        <path id="Trazado_237" data-name="Trazado 237" d="M569.108,497.464c.234-4.525-3.7-8.161-4.838-12.484a4.208,4.208,0,0,1-.125-.64,12.03,12.03,0,0,0,.125,5.321c.921,3.574,3.7,6.632,4.572,10.1C568.921,498.946,569.077,498.213,569.108,497.464Z" transform="translate(-563.907 -450.586)"/>
        <path id="Trazado_238" data-name="Trazado 238" d="M676.466,481.123a20.8,20.8,0,0,1-5.571,6.851c-3.636,3.355-8.146,6.96-12.968,5.867-7.163-1.56-9.628-12.484-16.932-13.233s-12.156,9.363-19.538,9.16c-3.121-.078-5.93-2.122-8.8-3.542-5.025-2.481-13.28-3.995-18.726-2.122-8.161,2.793-10.924,10.346-16.167,16.354a26.328,26.328,0,0,1-6.866,5.587,3.308,3.308,0,0,1-1.763.546,2.169,2.169,0,0,1-1.748-1.4v.109a24.019,24.019,0,0,0-.3,3.5,2.575,2.575,0,0,0,2.044,2.481,3.308,3.308,0,0,0,1.763-.546,26.325,26.325,0,0,0,6.866-5.587c5.275-6.008,8.005-13.561,16.167-16.354,5.509-1.873,13.764-.359,18.726,2.122,2.871,1.42,5.618,3.464,8.8,3.542,7.381.187,12.2-9.972,19.538-9.16s9.769,11.61,16.932,13.233c4.822,1.092,9.363-2.512,12.968-5.868a20.8,20.8,0,0,0,5.571-6.851,13.17,13.17,0,0,0,.671-7.085A11.024,11.024,0,0,1,676.466,481.123Z" transform="translate(-562.123 -453.736)"/>
      </g>
      <path id="Trazado_239" data-name="Trazado 239" class="cls-11" d="M500,814.852s12.749-3.932,18.039,3.527" transform="translate(131.649 409.056)"/>
      <path id="Trazado_240" data-name="Trazado 240" class="cls-11" d="M696.565,815.52s-21.114-1.233-20.287,4.479" transform="translate(230.442 409.948)"/>
      <ellipse id="Elipse_9" data-name="Elipse 9" class="cls-18" cx="42.025" cy="7.1" rx="42.025" ry="7.1" transform="translate(1306.523 1199.705)"/>
      <ellipse id="Elipse_10" data-name="Elipse 10" class="cls-18" cx="42.025" cy="7.1" rx="42.025" ry="7.1" transform="translate(100.125 1257.974)"/>
      <ellipse id="Elipse_11" data-name="Elipse 11" class="cls-18" cx="42.025" cy="7.1" rx="42.025" ry="7.1" transform="translate(262.683 1296.066)"/>
    </g>
  </g>
</svg>
